<?xml version="1.0" standalone="no"?><!-- Generator: Gravit.io --><svg xmlns="http://www.w3.org/2000/svg" xmlns:xlink="http://www.w3.org/1999/xlink" style="isolation:isolate" viewBox="0 0 244 200" width="244" height="200"><defs><clipPath id="_clipPath_BhG43g6gyuRN3wziKkL7Pyq57i4kTgl3"><rect width="244" height="200"/></clipPath></defs><g clip-path="url(#_clipPath_BhG43g6gyuRN3wziKkL7Pyq57i4kTgl3)"><g id="Capa_1-2"><path d=" M 60.212 54.91 L 180.909 187 L 192.968 187 L 48.492 0 L 0.453 0.102 C 19.615 0.102 37.669 2.606 37.669 43.844 L 37.51 143.324 C 37.51 184.58 19.635 186.981 0.453 186.981 L 97.159 186.981 C 77.858 186.981 60.133 184.58 60.133 143.324 L 60.212 54.91 Z " fill="rgb(33,32,33)"/><path d=" M 184.25 132.09 L 63.564 0 L 51.504 0 L 195.961 186.953 L 244 186.851 C 224.838 186.851 206.784 184.348 206.784 143.109 L 206.784 43.658 C 206.784 2.401 224.828 0 244 0 L 147.303 0 C 166.605 0 184.33 2.401 184.33 43.658 L 184.25 132.072" fill="rgb(33,32,33)"/></g></g></svg>